PathFileType	4	(X/Y/Z)	C:/Users/beibeiliu/ov580/test_trc/User3\sequence.32_training_dense_left.trc
DataRate	CameraRate	NumFrames	NumMarkers	Units	OrigDataRate	OrigDataStartFrame	OrigNumFrames
120	120	7	19	mm	120	82	109
Frame#	Time	ThumbCMC			ThumbMCP			ThumbIP			ThumbTip			IndexMCP			IndexPIP			IndexTip			MiddleMCP			MiddlePIP			MiddleTip			RingMCP			RingPIP			RingTip			PinkyMCP			PinkyPIP			PinkyTip			BackHand1			BackHand2			BackHand3	
		X0	Y0	Z0	X1	Y1	Z1	X2	Y2	Z2	X3	Y3	Z3	X4	Y4	Z4	X5	Y5	Z5	X6	Y6	Z6	X7	Y7	Z7	X8	Y8	Z8	X9	Y9	Z9	X10	Y10	Z10	X11	Y11	Z11	X12	Y12	Z12	X13	Y13	Z13	X14	Y14	Z14	X15	Y15	Z15	X16	Y16	Z16	X17	Y17	Z17	X18	Y18	Z18	
81	0.675	-260.269	-33.4395	2.07805	-258.401	-34.9296	-36.992	-246.621	-54.0277	-61.0239	-225.649	-71.145	-60.3276	-297.026	-79.4789	-46.679	-310.453	-86.1071	-68.7953	-322.236	-88.8811	-94.2019	-283.886	-97.5669	-54.0057	-296.734	-105.241	-77.9983	-302.254	-112.507	-108.067	-258.432	-102.727	-52.6371	-265.29	-113.795	-73.6371	-276.451	-120.463	-102.195	-235.584	-102.469	-49.5747	-237.669	-111.742	-66.0318	-237.221	-125.104	-86.4266	-240.334	-95.0613	-6.49989	-228.609	-87.9993	17.8122	-263.467	-72.9612	10.7007	
82	0.683333	-254.039	-17.7468	-0.778714	-251.512	-20.4309	-36.4915	-247.174	-47.6755	-59.958	-236.727	-70.6316	-53.7334	-306.851	-48.8305	-46.2133	-321.172	-49.3407	-67.8297	-331.014	-53.0349	-91.5943	-297.734	-72.677	-48.6391	-314.813	-78.0199	-77.0513	-324.426	-83.4627	-105.199	-280.532	-87.1256	-48.0253	-289.922	-97.1739	-68.5641	-302.618	-99.8539	-93.7977	-254.091	-94.1453	-40.0346	-262.298	-106.324	-57.9672	-268.543	-116.852	-76.3922	-263.016	-79.3752	-3.79403	-248.529	-74.8407	23.3843	-271.371	-51.8881	14.2384	
83	0.691667	-240.731	-5.27866	-1.99364	-241.089	-9.0502	-42.4437	-246.118	-36.5341	-59.3942	-244.432	-63.8637	-54.1877	-300.483	-16.7553	-50.0837	-314.964	-14.8862	-73.8649	-325.788	-13.0261	-96.0709	-305.393	-45.7988	-53.8341	-317.597	-47.2926	-78.1961	-328.151	-48.6132	-105.623	-291.506	-62.4159	-46.6637	-304.523	-69.625	-67.5629	-316	-75.0647	-94.1316	-271.191	-80.9177	-38.2389	-280.907	-90.1451	-54.9435	-294.391	-94.7172	-74.9114	-272.372	-61.1048	-3.09492	-257.915	-60.0589	24.0429	-272.946	-26.8232	9.98036	
84	0.7	-227.455	5.72151	-8.00708	-226.934	-1.95354	-45.1975	-238.896	-25.208	-66.205	-247.299	-51.3341	-56.4912	-281.603	11.7546	-56.6304	-293.201	17.1028	-84.8324	-299.705	24.3677	-103.664	-295.473	-9.94788	-60.8023	-307.236	-11.2768	-82.7079	-317.113	-8.09645	-114.103	-292.97	-35.0245	-51.8457	-305.846	-35.1702	-76.0011	-316.029	-37.7676	-100.413	-282.859	-54.2412	-41.4443	-292.759	-63.7364	-57.3854	-305.358	-64.2074	-75.6289	-278.455	-36.0358	-4.57613	-262.321	-36.3784	24.1596	-263.34	-1.99484	5.47714	
85	0.708333	-206.281	6.40612	-8.41901	-209.414	-1.80588	-44.4623	-227.205	-19.2739	-62.8306	-246.713	-38.5615	-57.7856	-252.876	30.7962	-65.8511	-256.059	38.0551	-87.7421	-260.645	46.5855	-112.387	-272.692	17.3838	-64.9785	-281.557	22.7259	-93.8888	-287.41	25.1071	-121.533	-282.843	-7.19787	-58.1826	-290.362	-1.566	-81.5452	-302.511	-4.36436	-107.73	-284.96	-30.3633	-46.7143	-291.958	-32.1251	-62.6526	-307.983	-33.3079	-83.6212	-269.8	-11.2801	-7.88493	-260.435	-12.6935	17.0887	-242.861	14.7397	2.95629	
86	0.716667	-193.793	1.08901	-8.7005	-194.097	-6.99686	-46.7045	-213.712	-18.5795	-68.0442	-244.671	-29.3652	-59.7584	-223.97	35.9816	-70.0422	-219.43	47.2902	-95.4461	-220.839	54.4207	-120.629	-250.055	29.0543	-70.3572	-251.658	36.7788	-97.4601	-257.889	41.9285	-132.662	-262.562	12.9206	-65.3023	-272.179	17.7089	-90.8958	-279.204	19.7399	-111.906	-272.227	-7.04406	-51.8693	-281.512	-5.73238	-72.7135	-296.381	-6.10254	-88.3049	-256.472	5.71052	-12.5521	-251.034	5.04191	11.9073	-224.41	24.3088	-2.6669	
87	0.725	-181.62	-7.25961	-10.3815	-182.659	-17.5526	-48.5831	-208.069	-21.767	-66.2361	-235.974	-26.8105	-64.9163	-198.911	32.5405	-76.5217	-193.707	37.7781	-99.4266	-189.558	44.1668	-124.62	-223.038	33.765	-78.6069	-222.52	39.1836	-104.741	-224.556	41.1902	-134.743	-246.066	20.0131	-69.9381	-247.671	26.2246	-93.859	-253.74	30.0072	-120.655	-258.718	3.84138	-56.2552	-270.532	6.72924	-77.0486	-280.364	9.79396	-94.4979	-242.631	16.6643	-18.2018	-239.38	11.2063	11.5219	-207.808	23.5985	-6.59964	
